# xmcd
#
# Track frame offsets: 
#        150
#        19432
#        40769
#        62539
#        77974
#        94963
#        118541
#        129828
#        144103
#        156585
#        174672
#        191634
#        212630
#        223511
#
# Disc length: 3236 seconds
#
# Revision: 2
# Processed by: cddbd v1.5.2PL0 Copyright (c) Steve Scherf et al.
# Submitted via: ExactAudioCopy v0.99pb4
#
DISCID=c50ca20e
DTITLE=Nina Simone - The Nina Simone Collection [CD 3)
DYEAR=2006
DGENRE=Jazz
TTITLE0=The Other Woman (Live)
TTITLE1=Mississippi Goddam (Live)
TTITLE2=Four Women (Live)
TTITLE3=I Want A Little Sugar In My Bowl (Live)
TTITLE4=Do what You Gota Do (Live)
TTITLE5=Ne me quitte pas (Live)
TTITLE6=He Needs Me
TTITLE7=He's Got The Whole World In His Hands
TTITLE8=Backlash Blues (Live)
TTITLE9=For All We Know
TTITLE10=Cotton Eyed Joe (Live)
TTITLE11=Ain't Got No... I Got Life (Live)
TTITLE12=Sunday In Savannah (Live)
TTITLE13=When I Was In My Prime (Live) 
EXTD=YEAR: 2006
EXTT0=
EXTT1=
EXTT2=
EXTT3=
EXTT4=
EXTT5=
EXTT6=
EXTT7=
EXTT8=
EXTT9=
EXTT10=
EXTT11=
EXTT12=
EXTT13=
PLAYORDER=
